<svg width="138" height="46" viewBox="0 0 138 46" fill="none" xmlns="http://www.w3.org/2000/svg">
<g id="app_store_en.svg">
<g id="Artboard">
<g id="app_store_en">
<g id="_Group_3">
<path id="_Path_" d="M28.4842 22.1958C28.5093 20.2448 29.5321 18.4428 31.1942 17.4209C30.1409 15.9166 28.4399 14.997 26.6044 14.9396C24.6733 14.7369 22.8011 16.0951 21.8171 16.0951C20.814 16.0951 19.2988 14.9597 17.6673 14.9933C15.5206 15.0626 13.5678 16.2535 12.5234 18.1303C10.2993 21.981 11.9583 27.6402 14.0888 30.7528C15.1548 32.277 16.4005 33.9795 18.0306 33.9191C19.6257 33.8529 20.2215 32.9019 22.1469 32.9019C24.0545 32.9019 24.6134 33.9191 26.2766 33.8807C27.9882 33.8529 29.0666 32.3498 30.0951 30.8112C30.861 29.7252 31.4503 28.5249 31.8413 27.2548C29.8084 26.395 28.4866 24.403 28.4842 22.1958Z" fill="white"/>
<path id="_Path_2" d="M25.3429 12.8926C26.2762 11.7723 26.736 10.3323 26.6246 8.87842C25.1988 9.02817 23.8818 9.70961 22.9359 10.787C22.0019 11.8499 21.5287 13.2406 21.6206 14.6526C23.0656 14.6674 24.4375 14.0188 25.3429 12.8926Z" fill="white"/>
</g>
<g id="Group">
<path id="Shape" d="M48.6476 30.0609H43.2041L41.8969 33.9208H39.5913L44.7472 19.6401H47.1427L52.2986 33.9208H49.9536L48.6476 30.0609ZM43.7679 28.2798H48.0827L45.9557 22.0154H45.8961L43.7679 28.2798Z" fill="white"/>
<path id="Shape_2" d="M63.4336 28.7153C63.4336 31.9508 61.7018 34.0295 59.0885 34.0295C57.7377 34.1002 56.4653 33.3927 55.8126 32.2079H55.7631V37.365H53.626V23.5088H55.6947V25.2406H55.734C56.4157 24.0632 57.6895 23.356 59.0492 23.3999C61.6917 23.3999 63.4336 25.4887 63.4336 28.7153ZM61.2369 28.7153C61.2369 26.6073 60.1475 25.2215 58.4854 25.2215C56.8525 25.2215 55.7542 26.6365 55.7542 28.7153C55.7542 30.8131 56.8525 32.2181 58.4854 32.2181C60.1475 32.2181 61.2369 30.8423 61.2369 28.7153Z" fill="white"/>
<path id="Shape_3" d="M74.8931 28.7153C74.8931 31.9508 73.1613 34.0295 70.548 34.0295C69.1972 34.1002 67.9248 33.3927 67.2721 32.2079H67.2226V37.3649H65.0854V23.5088H67.1541V25.2405H67.1934C67.8751 24.0632 69.1489 23.356 70.5086 23.3999C73.1512 23.3999 74.8931 25.4887 74.8931 28.7153ZM72.6964 28.7153C72.6964 26.6073 71.607 25.2215 69.9449 25.2215C68.312 25.2215 67.2137 26.6365 67.2137 28.7153C67.2137 30.8131 68.312 32.218 69.9449 32.218C71.607 32.218 72.6964 30.8423 72.6964 28.7153Z" fill="white"/>
<path id="Path" d="M82.467 29.9417C82.6254 31.3579 84.0011 32.2877 85.8811 32.2877C87.6825 32.2877 88.9784 31.3578 88.9784 30.0809C88.9784 28.9725 88.1968 28.3088 86.346 27.8539L84.4953 27.4081C81.8729 26.7747 80.6556 25.5483 80.6556 23.5583C80.6556 21.0943 82.8028 19.4019 85.8519 19.4019C88.8695 19.4019 90.9382 21.0943 91.0078 23.5583H88.8504C88.7212 22.1331 87.5432 21.2729 85.8215 21.2729C84.0999 21.2729 82.9218 22.1432 82.9218 23.41C82.9218 24.4196 83.6743 25.0137 85.5149 25.4685L87.0883 25.8549C90.0184 26.5478 91.2357 27.7247 91.2357 29.8136C91.2357 32.4853 89.1076 34.1587 85.7227 34.1587C82.5557 34.1587 80.4174 32.5246 80.2793 29.9416L82.467 29.9417Z" fill="white"/>
<path id="Path_2" d="M95.8481 21.0449V23.5089H97.8281V25.2013H95.8481V30.9412C95.8481 31.8329 96.2446 32.2484 97.1149 32.2484C97.35 32.2443 97.5847 32.2278 97.818 32.199V33.8813C97.4267 33.9544 97.0289 33.9875 96.6309 33.9801C94.5229 33.9801 93.7009 33.1884 93.7009 31.1692V25.2013H92.187V23.5089H93.7008V21.0449H95.8481Z" fill="white"/>
<path id="Shape_4" d="M98.9746 28.7153C98.9746 25.4394 100.904 23.3809 103.913 23.3809C106.931 23.3809 108.852 25.4394 108.852 28.7153C108.852 32.0002 106.942 34.0498 103.913 34.0498C100.885 34.0498 98.9746 32.0002 98.9746 28.7153ZM106.674 28.7153C106.674 26.4681 105.644 25.1418 103.913 25.1418C102.181 25.1418 101.152 26.4782 101.152 28.7153C101.152 30.9715 102.181 32.2877 103.913 32.2877C105.644 32.2877 106.674 30.9715 106.674 28.7153Z" fill="white"/>
<path id="Path_3" d="M110.614 23.5087H112.652V25.2809H112.702C112.986 24.1401 114.031 23.3549 115.206 23.3998C115.452 23.3989 115.698 23.4257 115.938 23.4795V25.4785C115.627 25.3835 115.303 25.3399 114.978 25.3494C114.35 25.3239 113.742 25.5743 113.313 26.0348C112.885 26.4954 112.68 27.1201 112.751 27.7448V33.9205H110.614V23.5087Z" fill="white"/>
<path id="Shape_5" d="M125.792 30.8626C125.504 32.7527 123.664 34.0498 121.309 34.0498C118.28 34.0498 116.4 32.0205 116.4 28.7647C116.4 25.4989 118.29 23.3809 121.219 23.3809C124.1 23.3809 125.911 25.3597 125.911 28.5166V29.2488H118.557V29.3779C118.489 30.1531 118.756 30.9203 119.292 31.4846C119.828 32.0488 120.581 32.3557 121.358 32.327C122.395 32.4242 123.373 31.8287 123.763 30.8626L125.792 30.8626ZM118.567 27.7551H123.773C123.811 27.0586 123.558 26.3775 123.073 25.8759C122.588 25.3743 121.916 25.0976 121.219 25.1126C120.516 25.1084 119.84 25.3852 119.343 25.8814C118.845 26.3776 118.566 27.0522 118.567 27.7551Z" fill="white"/>
</g>
<g id="Group_2">
<path id="Shape_6" d="M43.5 8.89061C44.4073 8.8255 45.296 9.17069 45.9215 9.83116C46.5469 10.4916 46.8432 11.3978 46.7288 12.3002C46.7288 14.4924 45.544 15.7525 43.5 15.7525H41.0215V8.89061H43.5ZM42.0872 14.7821H43.381C44.0294 14.8208 44.6607 14.5654 45.0997 14.0866C45.5387 13.6078 45.7386 12.9568 45.6439 12.3142C45.7317 11.6742 45.529 11.0285 45.091 10.5537C44.6531 10.0788 44.0259 9.82451 43.381 9.8603H42.0872V14.7821Z" fill="white"/>
<path id="Shape_7" d="M47.9325 13.161C47.8437 12.2328 48.2888 11.3345 49.081 10.8429C49.8733 10.3512 50.8758 10.3512 51.6681 10.8429C52.4603 11.3345 52.9054 12.2328 52.8166 13.161C52.9071 14.0901 52.4624 14.9902 51.6695 15.4829C50.8765 15.9756 49.8726 15.9756 49.0796 15.4829C48.2867 14.9902 47.842 14.0901 47.9325 13.161ZM51.7655 13.161C51.7655 12.0385 51.2612 11.3821 50.3762 11.3821C49.4879 11.3821 48.9882 12.0385 48.9882 13.161C48.9882 14.2924 49.4879 14.9438 50.3762 14.9438C51.2612 14.9438 51.7655 14.2879 51.7655 13.161Z" fill="white"/>
<path id="Path_4" d="M59.3092 15.7526H58.249L57.1788 11.9387H57.0979L56.0321 15.7526H54.9821L53.5547 10.5742H54.5913L55.5189 14.5256H55.5953L56.6599 10.5742H57.6403L58.705 14.5256H58.7858L59.709 10.5742H60.731L59.3092 15.7526Z" fill="white"/>
<path id="Path_5" d="M61.9316 10.5743H62.9154V11.397H62.9918C63.2574 10.7913 63.8779 10.4208 64.5371 10.4744C65.0475 10.436 65.5476 10.6318 65.8963 11.0065C66.245 11.3812 66.4044 11.8941 66.3295 12.4004V15.7526H65.3075V12.657C65.3075 11.8248 64.9459 11.411 64.1901 11.411C63.8439 11.3949 63.5079 11.5307 63.2703 11.783C63.0326 12.0352 62.9169 12.3787 62.9536 12.7233V15.7527H61.9316V10.5743Z" fill="white"/>
<path id="Path_6" d="M67.9575 8.55273H68.9795V15.7526H67.9575V8.55273Z" fill="white"/>
<path id="Shape_8" d="M70.4002 13.1611C70.3115 12.2328 70.7566 11.3345 71.549 10.8429C72.3413 10.3512 73.3439 10.3512 74.1362 10.8429C74.9285 11.3345 75.3737 12.2328 75.2849 13.1611C75.3753 14.0903 74.9306 14.9903 74.1375 15.4829C73.3445 15.9756 72.3406 15.9756 71.5476 15.4829C70.7546 14.9903 70.3099 14.0903 70.4002 13.1611ZM74.2332 13.1611C74.2332 12.0386 73.7289 11.3822 72.844 11.3822C71.9557 11.3822 71.4559 12.0386 71.4559 13.1611C71.4559 14.2925 71.9557 14.9439 72.844 14.9439C73.7289 14.9439 74.2332 14.288 74.2332 13.1611Z" fill="white"/>
<path id="Shape_9" d="M76.3608 14.288C76.3608 13.3558 77.0549 12.8185 78.2869 12.7421L79.6895 12.6612V12.2143C79.6895 11.6673 79.3279 11.3585 78.6294 11.3585C78.0589 11.3585 77.6636 11.568 77.5501 11.9341H76.5607C76.6652 11.0446 77.5019 10.4741 78.6766 10.4741C79.9748 10.4741 80.707 11.1204 80.707 12.2143V15.7524H79.7232V15.0247H79.6424C79.3083 15.5562 78.7141 15.8668 78.087 15.8378C77.6474 15.8835 77.2089 15.7411 76.8801 15.4458C76.5512 15.1506 76.3626 14.73 76.3608 14.288ZM79.6895 13.8455V13.4126L78.425 13.4934C77.7119 13.5411 77.3884 13.7837 77.3884 14.2402C77.3884 14.7063 77.7927 14.9775 78.3487 14.9775C78.6778 15.0108 79.0063 14.9092 79.2591 14.6958C79.5119 14.4824 79.6672 14.1755 79.6895 13.8455Z" fill="white"/>
<path id="Shape_10" d="M82.0503 13.1612C82.0503 11.5249 82.8915 10.4883 84.1998 10.4883C84.8605 10.4579 85.4792 10.8119 85.7878 11.3968H85.8642V8.55273H86.8861V15.7526H85.9068V14.9344H85.826C85.4941 15.5145 84.8677 15.8625 84.1998 15.8379C82.8825 15.838 82.0503 14.8014 82.0503 13.1612ZM83.106 13.1612C83.106 14.2595 83.6237 14.9204 84.4896 14.9204C85.3509 14.9204 85.8833 14.25 85.8833 13.1657C85.8833 12.0864 85.3454 11.4064 84.4896 11.4064C83.6293 11.4064 83.106 12.0718 83.106 13.1612Z" fill="white"/>
<path id="Shape_11" d="M91.1146 13.161C91.0258 12.2328 91.4709 11.3345 92.2632 10.8429C93.0554 10.3512 94.0579 10.3512 94.8502 10.8429C95.6425 11.3345 96.0875 12.2328 95.9987 13.161C96.0892 14.0901 95.6446 14.9902 94.8516 15.4829C94.0586 15.9756 93.0547 15.9756 92.2618 15.4829C91.4688 14.9902 91.0241 14.0901 91.1146 13.161ZM94.9476 13.161C94.9476 12.0385 94.4433 11.3821 93.5584 11.3821C92.67 11.3821 92.1703 12.0385 92.1703 13.161C92.1703 14.2924 92.6701 14.9438 93.5584 14.9438C94.4433 14.9438 94.9476 14.2879 94.9476 13.161Z" fill="white"/>
<path id="Path_7" d="M97.3696 10.5743H98.3534V11.397H98.4298C98.6954 10.7913 99.3159 10.4208 99.9751 10.4744C100.485 10.436 100.986 10.6318 101.334 11.0065C101.683 11.3812 101.842 11.8941 101.767 12.4004V15.7526H100.746V12.657C100.746 11.8248 100.384 11.411 99.6281 11.411C99.2819 11.3949 98.9459 11.5307 98.7083 11.783C98.4706 12.0352 98.3549 12.3787 98.3916 12.7233V15.7527H97.3696V10.5743Z" fill="white"/>
<path id="Path_8" d="M107.542 9.28516V10.598H108.664V11.4588H107.542V14.1216C107.542 14.664 107.766 14.9015 108.275 14.9015C108.405 14.9011 108.535 14.8932 108.664 14.8779V15.7292C108.481 15.762 108.295 15.7795 108.108 15.7814C106.972 15.7814 106.519 15.3816 106.519 14.3832V11.4588H105.697V10.598H106.519V9.28516H107.542Z" fill="white"/>
<path id="Path_9" d="M110.06 8.55273H111.073V11.4064H111.154C111.432 10.7954 112.064 10.4245 112.733 10.4788C113.24 10.4512 113.734 10.6513 114.079 11.0246C114.423 11.3979 114.584 11.9056 114.516 12.4093V15.7526H113.493V12.6614C113.493 11.8343 113.108 11.4154 112.386 11.4154C112.03 11.3862 111.68 11.5155 111.429 11.7686C111.177 12.0217 111.05 12.3729 111.082 12.7282V15.7526H110.06L110.06 8.55273Z" fill="white"/>
<path id="Shape_12" d="M120.475 14.3543C120.189 15.3311 119.244 15.9622 118.232 15.8525C117.541 15.8707 116.877 15.5845 116.417 15.0698C115.956 14.5551 115.745 13.8639 115.839 13.1796C115.748 12.4935 115.958 11.8012 116.416 11.2821C116.874 10.7631 117.535 10.4683 118.227 10.4742C119.668 10.4742 120.537 11.4586 120.537 13.0847V13.4413H116.881V13.4986C116.848 13.8828 116.979 14.2629 117.242 14.5454C117.505 14.8278 117.874 14.9864 118.26 14.9821C118.76 15.0421 119.246 14.7941 119.492 14.3543L120.475 14.3543ZM116.881 12.6855H119.496C119.522 12.334 119.399 11.9879 119.156 11.7325C118.913 11.477 118.574 11.3359 118.221 11.344C117.864 11.3395 117.521 11.4794 117.268 11.732C117.016 11.9846 116.876 12.3284 116.881 12.6855Z" fill="white"/>
</g>
</g>
</g>
</g>
</svg>
