<svg width="10" height="8" viewBox="0 0 10 8" fill="none" xmlns="http://www.w3.org/2000/svg">
<g id="64883fa287a0ae9e520f75fe_%F4%80%AF%B6.svg" clip-path="url(#clip0_239_849)">
<path id="Vector" d="M4.99718 7.00008C4.8993 7.00008 4.80896 6.98289 4.72614 6.94851C4.64333 6.91031 4.56428 6.853 4.48899 6.7766L0.186335 2.31279C0.0621118 2.1829 8.015e-09 2.02628 0 1.84291C-5.511e-09 1.71685 0.0301148 1.60415 0.0903444 1.50483C0.146809 1.40169 0.223979 1.31955 0.321852 1.25843C0.419725 1.19731 0.530773 1.16675 0.654997 1.16675C0.831921 1.16675 0.990024 1.23742 1.12931 1.37877L4.99718 5.40136L8.86505 1.37877C9.00433 1.23742 9.16431 1.16675 9.345 1.16675C9.46546 1.16675 9.57463 1.19731 9.6725 1.25843C9.77414 1.31955 9.85319 1.40169 9.90966 1.50483C9.96988 1.60415 10 1.71684 10 1.84291C10 2.02628 9.93601 2.1829 9.80802 2.31278L5.50536 6.7766C5.43008 6.853 5.35103 6.91031 5.26821 6.94851C5.18539 6.98289 5.09505 7.00008 4.99718 7.00008Z" fill="#202020"/>
</g>
<defs>
<clipPath id="clip0_239_849">
<rect width="10" height="7" fill="white" transform="translate(0 0.5)"/>
</clipPath>
</defs>
</svg>
