<svg width="44" height="45" viewBox="0 0 44 45" fill="none" xmlns="http://www.w3.org/2000/svg">
<rect y="0.800049" width="44" height="44" rx="22" fill="#EA6479"/>
<path d="M33 13.8001C32.0424 14.4756 30.9821 14.9922 29.86 15.3301C29.2577 14.6376 28.4573 14.1468 27.567 13.924C26.6767 13.7013 25.7395 13.7573 24.8821 14.0845C24.0247 14.4118 23.2884 14.9945 22.773 15.7538C22.2575 16.5131 21.9877 17.4124 22 18.3301V19.3301C20.2426 19.3757 18.5013 18.9859 16.931 18.1955C15.3607 17.4052 14.0103 16.2387 13 14.8001C13 14.8001 9 23.8001 18 27.8001C15.9405 29.1981 13.4872 29.899 11 29.8001C20 34.8001 31 29.8001 31 18.3001C30.9991 18.0215 30.9723 17.7437 30.92 17.4701C31.9406 16.4636 32.6608 15.1928 33 13.8001Z" fill="white"/>
</svg>
