<svg width="65" height="65" viewBox="0 0 65 65" fill="none" xmlns="http://www.w3.org/2000/svg">
<rect width="64.8" height="64.8" rx="32.4" fill="#F198A6"/>
<path d="M26.8224 19.8506H26.5435C24.2008 19.8506 23.0294 19.8506 22.1346 20.3065C21.3475 20.7076 20.7076 21.3475 20.3065 22.1346C19.8506 23.0294 19.8506 24.2008 19.8506 26.5435V26.8224M26.8224 44.9492H26.5435C24.2008 44.9492 23.0294 44.9492 22.1346 44.4932C21.3475 44.0922 20.7076 43.4523 20.3065 42.6652C19.8506 41.7704 19.8506 40.599 19.8506 38.2562V37.9773M44.9492 26.8224V26.5435C44.9492 24.2008 44.9492 23.0294 44.4932 22.1346C44.0922 21.3475 43.4523 20.7076 42.6652 20.3065C41.7704 19.8506 40.599 19.8506 38.2562 19.8506H37.9773M44.9492 37.9773V38.2562C44.9492 40.599 44.9492 41.7704 44.4932 42.6652C44.0922 43.4523 43.4523 44.0922 42.6652 44.4932C41.7704 44.9492 40.599 44.9492 38.2562 44.9492H37.9773M19.8506 32.3999H19.8645M26.1252 32.3999H26.1392M38.6745 32.3999H38.6885M32.3999 32.3999H32.4138M44.9492 32.3999H44.9631" stroke="white" stroke-width="2.78873" stroke-linecap="round" stroke-linejoin="round"/>
</svg>
