<svg width="65" height="65" viewBox="0 0 65 65" fill="none" xmlns="http://www.w3.org/2000/svg">
<rect width="64.8" height="64.8" rx="32.4" fill="#F198A6"/>
<path d="M39.372 28.9138V24.173C39.372 23.392 39.372 23.0016 39.22 22.7033C39.0863 22.4409 38.873 22.2276 38.6106 22.0939C38.3123 21.942 37.9219 21.942 37.141 21.942H19.8508M33.7945 35.8856V40.6265C33.7945 41.4074 33.7945 41.7979 33.6425 42.0961C33.5088 42.3585 33.2955 42.5718 33.0332 42.7055C32.7349 42.8575 32.3444 42.8575 31.5635 42.8575H19.8508M19.8508 18.4561L19.8508 46.3434M19.8508 35.8856L42.7184 35.8856C43.4994 35.8856 43.8898 35.8856 44.1881 35.7337C44.4505 35.6 44.6638 35.3867 44.7974 35.1243C44.9494 34.826 44.9494 34.4356 44.9494 33.6546V31.1448C44.9494 30.3639 44.9494 29.9734 44.7974 29.6751C44.6638 29.4128 44.4505 29.1995 44.1881 29.0658C43.8898 28.9138 43.4994 28.9138 42.7184 28.9138L19.8508 28.9138L19.8508 35.8856Z" stroke="white" stroke-width="2.78873" stroke-linecap="round" stroke-linejoin="round"/>
</svg>
