<svg width="65" height="65" viewBox="0 0 65 65" fill="none" xmlns="http://www.w3.org/2000/svg">
<rect width="64.8" height="64.8" rx="32.4" fill="#F198A6"/>
<path d="M28.2171 32.3997L31.0058 35.1884L37.2805 28.9138M28.4986 44.3925C28.9556 44.3321 29.4173 44.456 29.7813 44.7364L31.4591 46.0238C32.0137 46.4499 32.7852 46.4499 33.3382 46.0238L35.0795 44.6868C35.4048 44.4374 35.8153 44.3274 36.2212 44.3816L38.3994 44.6682C39.0918 44.7597 39.7595 44.3739 40.0275 43.7279L40.8656 41.7014C41.0221 41.3219 41.3226 41.0213 41.7022 40.8648L43.7285 40.0267C44.3745 39.7602 44.7602 39.0909 44.6688 38.3984L44.3931 36.2992C44.3327 35.8422 44.4566 35.3805 44.737 35.0164L46.0244 33.3386C46.4504 32.7839 46.4504 32.0124 46.0244 31.4593L44.6874 29.718C44.438 29.3926 44.328 28.9821 44.3822 28.5762L44.6688 26.3979C44.7602 25.7054 44.3745 25.0377 43.7285 24.7696L41.7022 23.9315C41.3226 23.775 41.0221 23.4745 40.8656 23.0949L40.0275 21.0685C39.7611 20.4224 39.0918 20.0367 38.3994 20.1281L36.2212 20.4147C35.8153 20.4705 35.4048 20.3605 35.081 20.1126L33.3398 18.7756C32.7852 18.3495 32.0137 18.3495 31.4606 18.7756L29.7194 20.1126C29.394 20.3605 28.9835 20.4705 28.5776 20.4178L26.3995 20.1312C25.707 20.0398 25.0393 20.4255 24.7713 21.0716L23.9348 23.098C23.7768 23.476 23.4762 23.7766 23.0982 23.9346L21.0719 24.7712C20.4259 25.0392 20.0402 25.7069 20.1316 26.3995L20.4182 28.5777C20.4708 28.9836 20.3609 29.3942 20.113 29.718L18.7761 31.4593C18.35 32.014 18.35 32.7855 18.7761 33.3386L20.113 35.0799C20.3624 35.4053 20.4724 35.8158 20.4182 36.2217L20.1316 38.4C20.0402 39.0925 20.4259 39.7602 21.0719 40.0282L23.0982 40.8664C23.4778 41.0229 23.7783 41.3234 23.9348 41.703L24.7729 43.7294C25.0393 44.3754 25.7086 44.7612 26.4011 44.6698L28.4986 44.3925Z" stroke="white" stroke-width="2.78873" stroke-linecap="round" stroke-linejoin="round"/>
</svg>
