<svg width="65" height="65" viewBox="0 0 65 65" fill="none" xmlns="http://www.w3.org/2000/svg">
<rect width="64.8" height="64.8" rx="32.4" fill="#F198A6"/>
<path d="M27.6453 34.5052L37.1689 40.0548M37.1549 24.7446L27.6453 30.2942M44.9494 22.6392C44.9494 24.9494 43.0766 26.8223 40.7663 26.8223C38.4561 26.8223 36.5832 24.9494 36.5832 22.6392C36.5832 20.3289 38.4561 18.4561 40.7663 18.4561C43.0766 18.4561 44.9494 20.3289 44.9494 22.6392ZM28.217 32.3997C28.217 34.71 26.3442 36.5828 24.0339 36.5828C21.7237 36.5828 19.8508 34.71 19.8508 32.3997C19.8508 30.0895 21.7237 28.2166 24.0339 28.2166C26.3442 28.2166 28.217 30.0895 28.217 32.3997ZM44.9494 42.1603C44.9494 44.4705 43.0766 46.3434 40.7663 46.3434C38.4561 46.3434 36.5832 44.4705 36.5832 42.1603C36.5832 39.85 38.4561 37.9772 40.7663 37.9772C43.0766 37.9772 44.9494 39.85 44.9494 42.1603Z" stroke="white" stroke-width="2.78873" stroke-linecap="round" stroke-linejoin="round"/>
</svg>
