<svg width="44" height="45" viewBox="0 0 44 45" fill="none" xmlns="http://www.w3.org/2000/svg">
<rect y="0.800049" width="44" height="44" rx="22" fill="#EA6479"/>
<path d="M26 18.8002C27.5913 18.8002 29.1174 19.4323 30.2426 20.5575C31.3679 21.6827 32 23.2089 32 24.8002V31.8002H28V24.8002C28 24.2697 27.7893 23.761 27.4142 23.386C27.0391 23.0109 26.5304 22.8002 26 22.8002C25.4696 22.8002 24.9609 23.0109 24.5858 23.386C24.2107 23.761 24 24.2697 24 24.8002V31.8002H20V24.8002C20 23.2089 20.6321 21.6827 21.7574 20.5575C22.8826 19.4323 24.4087 18.8002 26 18.8002Z" fill="white"/>
<path d="M16.0002 19.8H12.0002V31.8H16.0002V19.8Z" fill="white"/>
<path d="M14.0002 16.8C15.1048 16.8 16.0002 15.9046 16.0002 14.8C16.0002 13.6955 15.1048 12.8 14.0002 12.8C12.8957 12.8 12.0002 13.6955 12.0002 14.8C12.0002 15.9046 12.8957 16.8 14.0002 16.8Z" fill="white"/>
</svg>
