<svg width="65" height="65" viewBox="0 0 65 65" fill="none" xmlns="http://www.w3.org/2000/svg">
<rect width="64.8" height="64.8" rx="32.4" fill="#F198A6"/>
<path d="M21.9425 46.3434V39.3715M21.9425 25.4279V18.4561M18.4565 21.942H25.4284M18.4565 42.8575H25.4284M33.7946 19.8504L31.3765 26.1374C30.9833 27.1598 30.7867 27.671 30.4809 28.101C30.2099 28.4821 29.877 28.8151 29.4959 29.086C29.0659 29.3918 28.5547 29.5884 27.5323 29.9816L21.2453 32.3997L27.5323 34.8178C28.5547 35.211 29.0659 35.4076 29.4959 35.7134C29.877 35.9844 30.2099 36.3173 30.4809 36.6984C30.7867 37.1284 30.9833 37.6396 31.3765 38.662L33.7946 44.949L36.2127 38.662C36.6059 37.6396 36.8025 37.1284 37.1082 36.6984C37.3792 36.3173 37.7122 35.9844 38.0933 35.7134C38.5233 35.4076 39.0345 35.211 40.0569 34.8178L46.3439 32.3997L40.0569 29.9816C39.0345 29.5884 38.5233 29.3918 38.0933 29.086C37.7122 28.8151 37.3792 28.4821 37.1082 28.101C36.8025 27.671 36.6059 27.1598 36.2126 26.1374L33.7946 19.8504Z" stroke="white" stroke-width="2.78873" stroke-linecap="round" stroke-linejoin="round"/>
</svg>
