<svg width="44" height="45" viewBox="0 0 44 45" fill="none" xmlns="http://www.w3.org/2000/svg">
<rect y="0.800049" width="44" height="44" rx="22" fill="#EA6479"/>
<path d="M26.1902 12.8H17.8102C14.1702 12.8 12.0002 14.97 12.0002 18.61V26.98C12.0002 30.63 14.1702 32.8 17.8102 32.8H26.1802C29.8202 32.8 31.9902 30.63 31.9902 26.99V18.61C32.0002 14.97 29.8302 12.8 26.1902 12.8ZM22.0002 26.68C19.8602 26.68 18.1202 24.94 18.1202 22.8C18.1202 20.66 19.8602 18.92 22.0002 18.92C24.1402 18.92 25.8802 20.66 25.8802 22.8C25.8802 24.94 24.1402 26.68 22.0002 26.68ZM27.9202 17.68C27.8702 17.8 27.8002 17.91 27.7102 18.01C27.6102 18.1 27.5002 18.17 27.3802 18.22C27.2602 18.27 27.1302 18.3 27.0002 18.3C26.7302 18.3 26.4802 18.2 26.2902 18.01C26.2002 17.91 26.1302 17.8 26.0802 17.68C26.0302 17.56 26.0002 17.43 26.0002 17.3C26.0002 17.17 26.0302 17.04 26.0802 16.92C26.1302 16.79 26.2002 16.69 26.2902 16.59C26.5202 16.36 26.8702 16.25 27.1902 16.32C27.2602 16.33 27.3202 16.35 27.3802 16.38C27.4402 16.4 27.5002 16.43 27.5602 16.47C27.6102 16.5 27.6602 16.55 27.7102 16.59C27.8002 16.69 27.8702 16.79 27.9202 16.92C27.9702 17.04 28.0002 17.17 28.0002 17.3C28.0002 17.43 27.9702 17.56 27.9202 17.68Z" fill="white"/>
</svg>
