<svg width="157" height="46" viewBox="0 0 157 46" fill="none" xmlns="http://www.w3.org/2000/svg">
<g id="google_play_en.svg">
<g id="Artboard">
<g id="google-play-badge">
<path id="Path" d="M54.5296 11.7768C54.5678 12.629 54.2562 13.4597 53.6672 14.0767C53.0065 14.7588 52.0862 15.1269 51.1373 15.0886C50.1836 15.1099 49.2636 14.7352 48.596 14.0537C47.2024 12.6281 47.2024 10.3505 48.596 8.925C49.6435 7.90147 51.203 7.60679 52.5518 8.17755C52.9664 8.348 53.3363 8.61163 53.6327 8.948L53.0232 9.55746C52.5602 8.99969 51.8613 8.69286 51.1373 8.72951C49.8973 8.73809 48.8153 9.57266 48.492 10.7698C48.1688 11.967 48.6837 13.2328 49.7508 13.8643C50.818 14.4959 52.1753 14.3382 53.0692 13.4787C53.4205 13.0936 53.6241 12.5966 53.6442 12.0758H51.1373V11.2479H54.4836C54.5098 11.4231 54.5252 11.5997 54.5296 11.7768Z" fill="white" stroke="white" stroke-width="0.229985"/>
<path id="Path_2" d="M59.7962 8.90222H56.6914V11.0871H59.5202V11.915H56.6914V14.0999H59.7962V14.9508H55.7944V8.05127H59.7962V8.90222Z" fill="white" stroke="white" stroke-width="0.229985"/>
<path id="Path_3" d="M63.5683 14.9508H62.6828V8.90222H60.751V8.05127H65.5462V8.90222H63.5683V14.9508Z" fill="white" stroke="white" stroke-width="0.229985"/>
<path id="Path_4" d="M68.9268 14.9508V8.05127H69.8122V14.9508H68.9268Z" fill="white" stroke="white" stroke-width="0.229985"/>
<path id="Path_5" d="M73.7451 14.9508H72.8596V8.90222H70.9277V8.05127H75.6654V8.90222H73.7451V14.9508Z" fill="white" stroke="white" stroke-width="0.229985"/>
<path id="Shape" d="M84.6464 14.0537C83.9757 14.725 83.0656 15.1022 82.1166 15.1022C81.1676 15.1022 80.2575 14.725 79.5867 14.0537C78.2374 12.6192 78.2374 10.3824 79.5867 8.94798C80.2439 8.25684 81.1632 7.87659 82.1166 7.90155C83.0681 7.88649 83.9836 8.26517 84.6464 8.94798C85.3144 9.62748 85.6794 10.5482 85.6583 11.5008C85.6888 12.4551 85.3225 13.3794 84.6464 14.0537ZM80.2422 13.4787C80.737 13.9801 81.4121 14.2624 82.1166 14.2624C82.821 14.2624 83.4961 13.9801 83.991 13.4787C85.0197 12.3608 85.0197 10.6409 83.991 9.52294C83.4961 9.02151 82.821 8.73924 82.1166 8.73924C81.4121 8.73924 80.737 9.02151 80.2422 9.52294C79.2134 10.6409 79.2134 12.3608 80.2422 13.4787Z" fill="white" stroke="white" stroke-width="0.229985"/>
<path id="Path_6" d="M86.9116 14.9508V8.05127H87.9811L91.3388 13.4214V12.0875V8.05127H92.2243V14.9508H91.3043L87.7971 9.32769V10.6501V14.9508H86.9116Z" fill="white" stroke="white" stroke-width="0.229985"/>
<path id="Shape_2" d="M78.3561 25.0125C75.6506 25.0188 73.4626 27.2172 73.4689 29.9227C73.4753 32.6281 75.6736 34.8162 78.3791 34.8098C81.0845 34.8035 83.2726 32.6051 83.2663 29.8997C83.2852 28.5938 82.7732 27.3361 81.8475 26.4148C80.9219 25.4935 79.6619 24.9874 78.3561 25.0125ZM78.3561 32.8665C77.1409 32.9515 75.9972 32.285 75.4721 31.1858C74.947 30.0866 75.1471 28.7781 75.9768 27.8862C76.8065 26.9943 78.0972 26.7001 79.2314 27.1445C80.3656 27.5889 81.1129 28.6815 81.1159 29.8997C81.1533 30.6617 80.8814 31.4065 80.3617 31.9651C79.8421 32.5238 79.1188 32.8488 78.3561 32.8665ZM67.6388 25.0125C64.9333 25.0188 62.7453 27.2172 62.7516 29.9227C62.758 32.6281 64.9563 34.8162 67.6618 34.8098C70.3672 34.8035 72.5553 32.6051 72.549 29.8997C72.5679 28.5938 72.0559 27.3361 71.1302 26.4148C70.2046 25.4935 68.9445 24.9874 67.6388 25.0125ZM67.6388 32.8665C66.4236 32.9515 65.2799 32.285 64.7548 31.1858C64.2297 30.0866 64.4298 28.7781 65.2595 27.8862C66.0892 26.9943 67.3798 26.7001 68.5141 27.1445C69.6483 27.5889 70.3956 28.6815 70.3986 29.8997C70.436 30.6617 70.164 31.4065 69.6444 31.9651C69.1248 32.5238 68.4015 32.8488 67.6388 32.8665ZM54.8976 26.5189V28.5887H59.8653C59.7874 29.5637 59.3821 30.4836 58.7153 31.1991C57.7076 32.2258 56.312 32.7774 54.8746 32.717C51.8262 32.717 49.3549 30.2458 49.3549 27.1973C49.3549 24.1489 51.8262 21.6777 54.8746 21.6777C56.278 21.6568 57.6331 22.1898 58.6463 23.1611L60.1067 21.7007C58.7222 20.3313 56.8447 19.577 54.8976 19.6078C52.1136 19.4995 49.4934 20.923 48.0691 23.3176C46.6449 25.7121 46.6449 28.694 48.0691 31.0886C49.4934 33.4832 52.1136 34.9067 54.8976 34.7984C56.8872 34.8778 58.816 34.1038 60.1987 32.671C61.4063 31.3444 62.0497 29.5997 61.9926 27.8068C61.9967 27.3753 61.9621 26.9442 61.8891 26.5189H54.8976ZM107.001 28.1288C106.387 26.3225 104.722 25.0827 102.815 25.0125C101.544 25.01 100.328 25.5339 99.4565 26.4597C98.5851 27.3855 98.1358 28.6307 98.2153 29.8997C98.1951 32.0556 99.5965 33.9675 101.658 34.5973C103.72 35.227 105.951 34.4243 107.139 32.625L105.471 31.4751C104.966 32.3181 104.051 32.83 103.068 32.8205C102.048 32.8626 101.107 32.2733 100.699 31.3371L107.242 28.6347L107.001 28.1288ZM100.331 29.7617C100.284 29.0401 100.529 28.33 101.012 27.7913C101.494 27.2526 102.173 26.9308 102.896 26.8984C103.653 26.8521 104.364 27.2645 104.701 27.9448L100.331 29.7617ZM95.0185 34.4994H97.1689V20.1253H95.0185V34.4994ZM91.4997 26.1049H91.4192C90.7692 25.3646 89.8286 24.9447 88.8434 24.955C86.2332 25.0816 84.182 27.2347 84.182 29.8479C84.182 32.4611 86.2332 34.6143 88.8434 34.7409C89.8305 34.7607 90.775 34.339 91.4192 33.5909H91.4997V34.2924C91.4997 36.1668 90.4993 37.1672 88.8894 37.1672C87.7895 37.143 86.813 36.4572 86.4171 35.4308L84.5542 36.2013C85.2593 37.9721 86.9835 39.1247 88.8894 39.0991C91.4077 39.0991 93.4891 37.6157 93.4891 34.0049V25.3H91.4997V26.1049ZM89.0274 32.8665C87.4636 32.769 86.2452 31.4722 86.2452 29.9054C86.2452 28.3386 87.4636 27.0419 89.0274 26.9444C89.7714 26.9765 90.4706 27.3091 90.9648 27.8662C91.459 28.4233 91.706 29.1571 91.6492 29.8997C91.7126 30.6449 91.4683 31.3836 90.973 31.944C90.4778 32.5044 89.7747 32.8377 89.0274 32.8665ZM117.074 20.1253H111.922V34.4994H114.073V29.0487H117.074C118.745 29.1687 120.342 28.3455 121.214 26.9156C122.086 25.4856 122.086 23.6884 121.214 22.2584C120.342 20.8285 118.745 20.0053 117.074 20.1253ZM117.074 27.0248H114.073V22.1262H117.12C117.999 22.1262 118.812 22.5952 119.251 23.3566C119.691 24.118 119.691 25.056 119.251 25.8174C118.812 26.5788 117.999 27.0478 117.12 27.0478L117.074 27.0248ZM130.344 24.9665C128.744 24.8678 127.238 25.7314 126.515 27.1628L128.412 27.9563C128.804 27.2501 129.574 26.8403 130.379 26.9099C130.93 26.8455 131.484 27.0053 131.917 27.3534C132.349 27.7015 132.624 28.2088 132.679 28.7612V28.8992C131.987 28.5358 131.217 28.3463 130.436 28.3473C128.389 28.3473 126.297 29.4972 126.297 31.5901C126.337 32.4888 126.741 33.3326 127.415 33.9286C128.089 34.5245 128.976 34.8218 129.873 34.7524C130.971 34.8131 132.018 34.2769 132.61 33.3494H132.679V34.4994H134.748V28.9682C134.748 26.4499 132.84 24.9895 130.39 24.9895L130.344 24.9665ZM130.08 32.8435C129.378 32.8435 128.401 32.487 128.401 31.6246C128.401 30.4746 129.62 30.0837 130.701 30.0837C131.384 30.0668 132.059 30.2336 132.656 30.5666C132.506 31.8581 131.426 32.8406 130.126 32.8665L130.08 32.8435ZM142.292 25.3L139.831 31.5326H139.762L137.209 25.3H134.909L138.739 34.0164L136.554 38.8576H138.796L144.684 25.3H142.292ZM122.973 34.4994H125.112V20.1253H122.973V34.4994Z" fill="white"/>
<path id="Path_7" d="M12.0054 8.6718C11.6264 9.11984 11.4331 9.69577 11.4649 10.2817V35.7181C11.4258 36.305 11.62 36.8836 12.0054 37.328L12.0859 37.42L26.3335 23.1724V22.8274L12.0859 8.59131L12.0054 8.6718Z" fill="url(#paint0_linear_239_458)"/>
<path id="Path_8" d="M31.0482 27.922L26.3335 23.1728V22.8278L31.0482 18.0786L31.1517 18.1476L36.7978 21.3444C38.4077 22.2528 38.4077 23.7478 36.7978 24.6677L31.1747 27.8645L31.0482 27.922Z" fill="url(#paint1_linear_239_458)"/>
<path id="Path_9" d="M31.1861 27.8527L26.3335 23L12.0054 37.3281C12.6758 37.9249 13.6765 37.9587 14.3857 37.4086L31.1861 27.8527Z" fill="url(#paint2_linear_239_458)"/>
<path id="Path_10" d="M31.1861 18.1473L14.3857 8.60289C13.6808 8.04486 12.6768 8.07396 12.0054 8.67189L26.3335 23L31.1861 18.1473Z" fill="url(#paint3_linear_239_458)"/>
<path id="Path_11" opacity="0.2" d="M31.0482 27.7495L14.3857 37.2364C13.7051 37.7501 12.7664 37.7501 12.0859 37.2364L12.0054 37.3169L12.0859 37.4089C12.7664 37.9225 13.7051 37.9225 14.3857 37.4089L31.1861 27.853L31.0482 27.7495Z" fill="black"/>
<path id="Path_12" opacity="0.12" d="M12.0052 37.1673C11.6359 36.7112 11.4549 36.1311 11.4993 35.5459V35.7184C11.4601 36.3053 11.6544 36.8839 12.0397 37.3283L12.1202 37.2478L12.0052 37.1673Z" fill="black"/>
<path id="Path_13" opacity="0.12" d="M36.798 24.4949L31.0483 27.7492L31.1518 27.8527L36.798 24.6559C37.4769 24.3688 37.9445 23.7335 38.0169 23C37.8711 23.6636 37.4187 24.2185 36.798 24.4949Z" fill="black"/>
<path id="Path_14" opacity="0.25" d="M14.3857 8.76377L36.7977 21.505C37.4184 21.7814 37.8708 22.3362 38.0166 22.9999C37.9443 22.2663 37.4766 21.631 36.7977 21.344L14.3857 8.60278C12.7873 7.68284 11.4648 8.44179 11.4648 10.2817V10.4542C11.4993 8.61428 12.7873 7.85533 14.3857 8.76377Z" fill="white"/>
</g>
</g>
</g>
<defs>
<linearGradient id="paint0_linear_239_458" x1="919.417" y1="151.182" x2="-302.18" y2="1372.78" gradientUnits="userSpaceOnUse">
<stop stop-color="#00A0FF"/>
<stop offset="0.01" stop-color="#00A1FF"/>
<stop offset="0.26" stop-color="#00BEFF"/>
<stop offset="0.51" stop-color="#00D2FF"/>
<stop offset="0.76" stop-color="#00DFFF"/>
<stop offset="1" stop-color="#00E3FF"/>
</linearGradient>
<linearGradient id="paint1_linear_239_458" x1="1283.2" y1="510.247" x2="-1498.47" y2="510.247" gradientUnits="userSpaceOnUse">
<stop stop-color="#FFE000"/>
<stop offset="0.41" stop-color="#FFBD00"/>
<stop offset="0.78" stop-color="#FFA500"/>
<stop offset="1" stop-color="#FF9C00"/>
</linearGradient>
<linearGradient id="paint2_linear_239_458" x1="1666.75" y1="479.898" x2="-421.164" y2="2566.89" gradientUnits="userSpaceOnUse">
<stop stop-color="#FF3A44"/>
<stop offset="1" stop-color="#C31162"/>
</linearGradient>
<linearGradient id="paint3_linear_239_458" x1="-349.072" y1="-168.033" x2="582.739" y2="763.778" gradientUnits="userSpaceOnUse">
<stop stop-color="#32A071"/>
<stop offset="0.07" stop-color="#2DA771"/>
<stop offset="0.48" stop-color="#15CF74"/>
<stop offset="0.8" stop-color="#06E775"/>
<stop offset="1" stop-color="#00F076"/>
</linearGradient>
</defs>
</svg>
