<svg width="24" height="25" viewBox="0 0 24 25" fill="none" xmlns="http://www.w3.org/2000/svg">
<g id="vuesax/bold/instagram">
<g id="instagram">
<path id="Vector" d="M16.19 2.80029H7.81C4.17 2.80029 2 4.97029 2 8.61029V16.9803C2 20.6303 4.17 22.8003 7.81 22.8003H16.18C19.82 22.8003 21.99 20.6303 21.99 16.9903V8.61029C22 4.97029 19.83 2.80029 16.19 2.80029ZM12 16.6803C9.86 16.6803 8.12 14.9403 8.12 12.8003C8.12 10.6603 9.86 8.92029 12 8.92029C14.14 8.92029 15.88 10.6603 15.88 12.8003C15.88 14.9403 14.14 16.6803 12 16.6803ZM17.92 7.68029C17.87 7.80029 17.8 7.91029 17.71 8.01029C17.61 8.10029 17.5 8.17029 17.38 8.22029C17.26 8.27029 17.13 8.30029 17 8.30029C16.73 8.30029 16.48 8.20029 16.29 8.01029C16.2 7.91029 16.13 7.80029 16.08 7.68029C16.03 7.56029 16 7.43029 16 7.30029C16 7.17029 16.03 7.04029 16.08 6.92029C16.13 6.79029 16.2 6.69029 16.29 6.59029C16.52 6.36029 16.87 6.25029 17.19 6.32029C17.26 6.33029 17.32 6.35029 17.38 6.38029C17.44 6.40029 17.5 6.43029 17.56 6.47029C17.61 6.50029 17.66 6.55029 17.71 6.59029C17.8 6.69029 17.87 6.79029 17.92 6.92029C17.97 7.04029 18 7.17029 18 7.30029C18 7.43029 17.97 7.56029 17.92 7.68029Z" fill="white"/>
</g>
</g>
</svg>
