<svg width="24" height="25" viewBox="0 0 24 25" fill="none" xmlns="http://www.w3.org/2000/svg">
<g id="icon / outlined / brand and logo / linkedin">
<path id="Vector" d="M16 8.79993C17.5913 8.79993 19.1174 9.43207 20.2426 10.5573C21.3679 11.6825 22 13.2086 22 14.7999V21.7999H18V14.7999C18 14.2695 17.7893 13.7608 17.4142 13.3857C17.0391 13.0106 16.5304 12.7999 16 12.7999C15.4696 12.7999 14.9609 13.0106 14.5858 13.3857C14.2107 13.7608 14 14.2695 14 14.7999V21.7999H10V14.7999C10 13.2086 10.6321 11.6825 11.7574 10.5573C12.8826 9.43207 14.4087 8.79993 16 8.79993Z" fill="white"/>
<path id="Vector_2" d="M6 9.80005H2V21.8H6V9.80005Z" fill="white"/>
<path id="Vector_3" d="M4 6.80017C5.10457 6.80017 6 5.90474 6 4.80017C6 3.6956 5.10457 2.80017 4 2.80017C2.89543 2.80017 2 3.6956 2 4.80017C2 5.90474 2.89543 6.80017 4 6.80017Z" fill="white"/>
</g>
</svg>
