<svg width="194" height="65" viewBox="0 0 194 65" fill="none" xmlns="http://www.w3.org/2000/svg">
<path d="M7.42167 7.4776V58.3296C7.42167 60.1082 7.68441 61.4826 8.1897 62.4932C8.1897 62.5134 8.20992 62.5134 8.20992 62.5336C8.79605 63.6048 8.06843 64.9185 6.83553 64.9185H1.58056C0.347657 64.9185 -0.379952 63.6048 0.206179 62.5336C0.206179 62.5134 0.226392 62.5134 0.226392 62.4932C0.75189 61.4826 1.01464 60.1082 1.01464 58.3296V7.4776C1.01464 5.71921 0.75189 4.32462 0.226392 3.31405C0.226392 3.31405 0.206179 3.29383 0.206179 3.27362C-0.379952 2.20242 0.347657 0.888672 1.58056 0.888672H6.83553C8.06843 0.888672 8.79605 2.20242 8.20992 3.27362C8.20992 3.29383 8.1897 3.29383 8.1897 3.31405C7.68441 4.32462 7.42167 5.71921 7.42167 7.4776Z" fill="#EA6479"/>
<path d="M15.2836 26.7805C15.2836 25.5678 15.1623 24.8402 14.9198 24.6381C14.556 24.3349 14.6772 23.7488 15.1219 23.6275C15.991 23.385 16.9409 23.001 17.9313 22.4553C18.8004 21.9904 19.8918 21 20.68 20.232C21.0438 19.8682 21.6704 20.131 21.6704 20.6564V28.5389C23.1862 25.2444 25.2882 22.8191 27.9359 21.2628C30.5836 19.7065 33.3526 18.9385 36.2024 18.9385C38.0417 18.9385 39.8001 19.2619 41.518 19.8884C43.2158 20.5352 44.7316 21.4649 46.0454 22.718C47.3591 23.9711 48.4101 25.5274 49.1984 27.3869C49.9866 29.2463 50.3908 31.3887 50.3908 33.8343V58.3508C50.3908 60.1294 50.6536 61.5038 51.1791 62.5144C51.1791 62.5346 51.1993 62.5346 51.1993 62.5548C51.7854 63.626 51.0578 64.9397 49.8249 64.9397H44.57C43.3371 64.9397 42.6094 63.626 43.1956 62.5548C43.1956 62.5346 43.2158 62.5346 43.2158 62.5144C43.7413 61.5038 43.9838 60.1294 43.9838 58.3508V31.2675C43.9838 29.2463 43.7615 27.5486 43.2966 26.154C42.8318 24.7594 42.2052 23.5871 41.417 22.6776C40.6287 21.7681 39.699 21.1011 38.6278 20.6564C37.5566 20.232 36.445 20.0097 35.2929 20.0097C33.777 20.0097 32.2005 20.3735 30.5836 21.1011C28.9667 21.8287 27.4913 22.8393 26.1371 24.1126C24.8032 25.3859 23.7117 26.922 22.8831 28.6804C22.0544 30.4388 21.6502 32.3993 21.6502 34.5417V58.3306C21.6502 60.1092 21.9129 61.4836 22.4182 62.4941C22.4182 62.5143 22.4384 62.5144 22.4384 62.5346C23.0246 63.6058 22.2969 64.9195 21.064 64.9195H15.8091C14.5762 64.9195 13.8486 63.6058 14.4347 62.5346C14.4347 62.5144 14.4549 62.5143 14.4549 62.4941C14.9804 61.4836 15.2432 60.1092 15.2432 58.3306V26.7805H15.2836Z" fill="#EA6479"/>
<path d="M79.2122 0.889302C76.4634 0.889302 74.0785 1.35417 72.0371 2.3041C69.9958 3.25404 68.3384 4.50715 67.0449 6.10386C65.7716 7.68035 64.8621 9.51959 64.3366 11.6014C63.8111 13.6831 63.7504 15.8458 64.1142 18.0892C64.5387 20.5955 65.5695 22.6166 67.2268 24.1729C68.8639 25.7292 70.8244 27.0429 73.0881 28.1545C75.3518 29.246 77.757 30.2363 80.3642 31.1256C82.9715 32.0149 85.3969 33.0457 87.6808 34.2382C89.9647 35.4307 91.9454 36.9263 93.6229 38.7251C95.3005 40.5239 96.3515 42.8483 96.7759 45.7183C97.261 48.7096 96.9983 51.3977 95.9473 53.7624C94.9165 56.1474 93.3602 58.1483 91.2784 59.8057C89.1966 61.4428 86.7713 62.7161 83.9619 63.6054C81.1525 64.4947 78.2016 64.9394 75.0891 64.9394C72.5222 64.9394 70.2181 64.6766 68.1767 64.1713C66.1354 63.6458 64.2961 62.9991 62.6792 62.2108C61.0623 61.4226 59.6071 60.5131 58.3338 59.4621C57.8083 59.0376 57.3232 58.6334 56.8381 58.2292C55.5244 57.1377 54.8372 55.44 54.9989 53.7422C55.2616 50.8924 55.7467 46.9916 56.1307 48.5277C56.7371 50.8722 57.8083 53.1965 59.3241 55.4804C60.84 57.7643 62.9015 59.7652 65.4482 61.463C68.015 63.1608 71.2085 64.0299 75.0486 64.0299C77.1304 64.0299 79.2324 63.6256 81.3546 62.8374C83.497 62.0491 85.3565 60.8971 86.933 59.4014C88.5095 57.9058 89.6615 56.0665 90.3689 53.8635C91.0763 51.6605 91.0157 49.1744 90.2274 46.3651C89.6211 44.2226 88.4084 42.5249 86.6096 41.2516C84.8108 39.9782 82.729 38.8666 80.344 37.9167C77.9591 36.9667 75.4731 36.0572 72.886 35.1679C70.2989 34.2786 67.8938 33.2074 65.6503 31.9139C63.4068 30.6203 61.5676 29.0034 60.0719 27.0227C58.5763 25.042 57.7678 22.4751 57.6466 19.3019C57.5253 16.25 57.9902 13.5215 59.0614 11.1163C60.1326 8.71113 61.6484 6.66978 63.6292 5.03265C65.6099 3.39552 67.9342 2.14241 70.5819 1.27332C73.2296 0.424439 76.0794 0 79.1313 0C80.9706 0 82.6481 0.181902 84.2044 0.545708C85.7607 0.909514 87.1553 1.31374 88.4084 1.77861C89.6615 2.24347 90.7529 2.66791 91.7029 3.05193C92.6528 3.45616 93.441 3.67848 94.0878 3.73912C94.7346 3.79975 95.1994 3.63806 95.5026 3.23383C95.5026 3.23383 95.5026 3.23383 95.5026 3.21362C95.7856 2.80939 96.4121 2.99129 96.4121 3.47637V13.7034C96.4121 14.2693 95.6239 14.3905 95.442 13.865C95.2601 13.3193 95.0782 12.7938 94.8963 12.3088C94.1889 10.4695 93.1177 8.71113 91.7029 7.01337C90.2678 5.31561 88.5094 3.86039 86.4075 2.66791C84.3863 1.49565 81.9609 0.889302 79.2122 0.889302Z" fill="#EA6479"/>
<path d="M101.445 8.48918C101.445 7.27649 101.324 6.54888 101.081 6.34676C100.718 6.04359 100.839 5.45746 101.284 5.33619C102.153 5.09365 103.103 4.70964 104.093 4.16393C104.962 3.69907 106.074 2.7087 106.842 1.94067C107.206 1.57686 107.832 1.83961 107.832 2.36511V34.946C109.409 32.561 111.207 30.3782 113.229 28.357C115.25 26.3359 117.291 24.6381 119.393 23.2435C121.495 21.8489 123.577 20.7777 125.618 20.0501C127.66 19.3225 129.539 19.08 131.237 19.3225C131.965 19.3831 132.49 19.6661 132.793 20.1512C133.096 20.6363 133.197 21.1415 133.117 21.667C133.016 22.1925 132.733 22.6372 132.248 23.0414C131.762 23.4456 131.055 23.6073 130.146 23.5467C128.872 23.4861 127.457 23.5265 125.942 23.6882C124.426 23.8499 122.869 24.1935 121.273 24.7392C119.696 25.2849 118.079 26.0933 116.422 27.1646C114.785 28.2358 113.229 29.6708 111.753 31.51L131.5 58.3912C132.712 60.089 133.945 61.4634 135.158 62.5144C135.178 62.5346 135.178 62.5346 135.198 62.5548C136.189 63.3835 135.623 65.0004 134.329 65.0004H126.892C125.942 65.0004 125.275 64.0706 125.598 63.1813C125.679 62.959 125.719 62.7367 125.679 62.5346C125.517 61.5038 124.81 60.1294 123.536 58.4114L107.852 37.0277V58.3306C107.852 60.1092 108.115 61.4836 108.62 62.4942C108.62 62.5144 108.641 62.5144 108.641 62.5346C109.227 63.6058 108.499 64.9195 107.266 64.9195H102.011C100.778 64.9195 100.051 63.6058 100.637 62.5346C100.637 62.5144 100.657 62.5144 100.657 62.4942C101.183 61.4836 101.445 60.1092 101.445 58.3306V8.48918Z" fill="#EA6479"/>
<path d="M143.606 26.7794C143.606 25.5667 143.485 24.8391 143.242 24.637C142.879 24.3338 143 23.7477 143.444 23.6264C144.314 23.3839 145.263 22.9999 146.254 22.4542C147.123 21.9893 148.214 20.9989 149.003 20.2309C149.366 19.8671 149.993 20.1298 149.993 20.6553V58.3699C149.993 60.1485 150.256 61.5229 150.761 62.5335C150.761 62.5537 150.781 62.5537 150.781 62.5739C151.367 63.6451 150.64 64.9588 149.407 64.9588H144.152C142.919 64.9588 142.191 63.6451 142.777 62.5739C142.777 62.5537 142.798 62.5537 142.798 62.5335C143.323 61.5229 143.586 60.1485 143.586 58.3699V26.7794H143.606ZM146.82 15.9865C145.486 15.9865 144.495 15.5823 143.849 14.794C143.202 14.0058 142.879 13.1165 142.879 12.1463C142.879 11.1762 143.202 10.2869 143.849 9.49863C144.495 8.71038 145.486 8.30615 146.82 8.30615C148.093 8.30615 149.063 8.71038 149.69 9.49863C150.337 10.2869 150.66 11.1762 150.66 12.1463C150.66 13.1165 150.337 14.0058 149.69 14.794C149.063 15.5823 148.093 15.9865 146.82 15.9865Z" fill="#EA6479"/>
<path d="M157.875 26.7805C157.875 25.5678 157.754 24.8402 157.512 24.6381C157.148 24.3349 157.269 23.7488 157.714 23.6275C158.583 23.385 159.533 23.001 160.523 22.4553C161.392 21.9904 162.484 21 163.272 20.232C163.636 19.8682 164.262 20.131 164.262 20.6564V28.5389C165.778 25.2444 167.88 22.8191 170.528 21.2628C173.175 19.7065 175.944 18.9385 178.794 18.9385C180.633 18.9385 182.392 19.2619 184.11 19.8884C185.808 20.5352 187.323 21.4649 188.637 22.718C189.951 23.9711 191.002 25.5274 191.79 27.3869C192.578 29.2463 192.983 31.3887 192.983 33.8343V58.3508C192.983 60.1294 193.245 61.5038 193.771 62.5144C193.771 62.5346 193.791 62.5346 193.791 62.5548C194.377 63.626 193.65 64.9397 192.417 64.9397H187.162C185.929 64.9397 185.201 63.626 185.787 62.5548C185.787 62.5346 185.808 62.5346 185.808 62.5144C186.333 61.5038 186.576 60.1294 186.576 58.3508V31.2675C186.576 29.2463 186.353 27.5486 185.888 26.154C185.424 24.7594 184.797 23.5871 184.009 22.6776C183.221 21.7681 182.291 21.1011 181.22 20.6564C180.148 20.232 179.037 20.0097 177.885 20.0097C176.369 20.0097 174.792 20.3735 173.175 21.1011C171.559 21.8287 170.083 22.8393 168.729 24.1126C167.375 25.3859 166.304 26.922 165.475 28.6804C164.646 30.459 164.242 32.3993 164.242 34.5417V58.3306C164.242 60.1092 164.505 61.4836 165.01 62.4941C165.01 62.5143 165.03 62.5144 165.03 62.5346C165.616 63.6058 164.889 64.9195 163.656 64.9195H158.401C157.168 64.9195 156.44 63.6058 157.026 62.5346C157.026 62.5144 157.047 62.5143 157.047 62.4941C157.572 61.4836 157.835 60.1092 157.835 58.3306V26.7805H157.875Z" fill="#EA6479"/>
</svg>
