<svg width="35" height="35" viewBox="0 0 35 35" fill="none" xmlns="http://www.w3.org/2000/svg">
<g id="message-text-square-02">
<path id="Icon" d="M10.4281 12.5197H17.3999M10.4281 17.4H21.583M10.4281 25.7662V29.0227C10.4281 29.7657 10.4281 30.1372 10.5804 30.328C10.7128 30.494 10.9137 30.5905 11.126 30.5903C11.3701 30.59 11.6602 30.3579 12.2404 29.8938L15.5666 27.2328C16.2461 26.6893 16.5858 26.4175 16.9641 26.2242C17.2998 26.0527 17.657 25.9274 18.0263 25.8516C18.4424 25.7662 18.8775 25.7662 19.7476 25.7662H23.2562C25.599 25.7662 26.7704 25.7662 27.6652 25.3103C28.4523 24.9092 29.0922 24.2693 29.4932 23.4822C29.9492 22.5874 29.9492 21.416 29.9492 19.0732V11.5437C29.9492 9.20091 29.9492 8.02953 29.4932 7.13472C29.0922 6.34762 28.4523 5.70769 27.6652 5.30664C26.7704 4.85071 25.599 4.85071 23.2562 4.85071H11.5435C9.20079 4.85071 8.02941 4.85071 7.1346 5.30664C6.3475 5.70769 5.70756 6.34762 5.30652 7.13472C4.85059 8.02953 4.85059 9.20091 4.85059 11.5437V20.1887C4.85059 21.4855 4.85059 22.1338 4.99312 22.6658C5.37992 24.1093 6.50746 25.2369 7.95102 25.6237C8.48297 25.7662 9.13133 25.7662 10.4281 25.7662Z" stroke="white" stroke-width="2.78873" stroke-linecap="round" stroke-linejoin="round"/>
</g>
</svg>
