<svg width="16" height="15" viewBox="0 0 16 15" fill="none" xmlns="http://www.w3.org/2000/svg">
<path id="Star 4" d="M7.44055 0.443456C7.63856 -0.0674376 8.36144 -0.0674363 8.55945 0.443457L10.1349 4.50836C10.22 4.728 10.4258 4.87751 10.661 4.8906L15.0138 5.13283C15.5609 5.16328 15.7843 5.85078 15.3596 6.19697L11.9805 8.95145C11.7979 9.10028 11.7193 9.34219 11.7795 9.56993L12.8942 13.7845C13.0343 14.3142 12.4495 14.7391 11.989 14.4422L8.32516 12.0797C8.12718 11.952 7.87282 11.952 7.67484 12.0797L4.01098 14.4422C3.55049 14.7391 2.96567 14.3142 3.10577 13.7845L4.22048 9.56993C4.28072 9.34219 4.20212 9.10028 4.01953 8.95145L0.640419 6.19697C0.21572 5.85077 0.439103 5.16328 0.98618 5.13283L5.33898 4.8906C5.57418 4.87751 5.77996 4.728 5.86509 4.50836L7.44055 0.443456Z" fill="#FDB022"/>
</svg>
