<svg width="23" height="30" viewBox="0 0 23 30" fill="none" xmlns="http://www.w3.org/2000/svg">
<path id="Vector" d="M19.4995 6.07893C19.4598 6.14798 19.3636 6.15707 19.3095 6.09862C19.0005 5.76498 18.6059 5.44206 18.1255 5.12984C17.587 4.77977 16.9811 4.4701 16.3079 4.20082C15.6347 3.9046 14.8942 3.67571 14.0863 3.51414C13.3054 3.32565 12.4841 3.2314 11.6224 3.2314C9.41426 3.2314 7.78509 3.64879 6.73489 4.48356C5.68469 5.31834 5.15959 6.46279 5.15959 7.91692C5.15959 8.9402 5.42887 9.74805 5.96744 10.3405C6.506 10.9329 7.32731 11.4176 8.43137 11.7946C9.56236 12.1716 10.9896 12.5621 12.713 12.966C14.7057 13.3968 16.4291 13.9219 17.8832 14.5413C19.3373 15.1606 20.4548 15.9954 21.2358 17.0456C22.0167 18.0689 22.4071 19.4422 22.4071 21.1656C22.4071 22.539 22.1379 23.7373 21.5993 24.7606C21.0877 25.7569 20.3606 26.5917 19.4181 27.2649C18.4756 27.9112 17.3716 28.3959 16.1059 28.719C14.8403 29.0152 13.467 29.1634 11.9859 29.1634C10.5318 29.1634 9.10458 29.0152 7.70431 28.719C6.33097 28.3959 5.02495 27.9381 3.78625 27.3457C2.57619 26.767 1.44322 26.0469 0.387352 25.1855C0.343968 25.1501 0.332597 25.0886 0.360168 25.0399L1.97224 22.1906C2.01053 22.1229 2.10342 22.1117 2.15798 22.1671C2.57172 22.5873 3.08754 23.0074 3.70546 23.4276C4.4056 23.8585 5.18652 24.2624 6.04822 24.6394C6.93686 25.0164 7.89281 25.3261 8.91608 25.5684C9.93936 25.7838 10.9896 25.8916 12.0667 25.8916C14.1132 25.8916 15.702 25.528 16.833 24.801C17.964 24.047 18.5295 22.9564 18.5295 21.5292C18.5295 20.452 18.2063 19.5903 17.5601 18.9441C16.9407 18.2978 16.0117 17.7592 14.773 17.3284C13.5343 16.8975 12.0263 16.4667 10.249 16.0358C8.3102 15.5511 6.68104 15.026 5.36155 14.4605C4.04206 13.8681 3.04572 13.1006 2.37251 12.1581C1.72623 11.2156 1.4031 9.9904 1.4031 8.48242C1.4031 6.65129 1.84741 5.10291 2.73604 3.83729C3.62468 2.57165 4.84991 1.6157 6.41175 0.969419C7.97359 0.32314 9.7374 0 11.7032 0C12.9957 0 14.194 0.134642 15.2981 0.403925C16.4291 0.673207 17.4793 1.0502 18.4487 1.53491C19.3883 2.00472 20.252 2.56306 21.0398 3.20995C21.0832 3.24554 21.0942 3.30727 21.0662 3.35589L19.4995 6.07893Z" fill="url(#paint0_linear_239_402)"/>
<defs>
<linearGradient id="paint0_linear_239_402" x1="-30.3106" y1="37.3053" x2="99.0316" y2="37.3053" gradientUnits="userSpaceOnUse">
<stop stop-color="#EA6479"/>
<stop offset="1" stop-color="#C58686"/>
</linearGradient>
</defs>
</svg>
