<svg width="9" height="65" viewBox="0 0 9 65" fill="none" xmlns="http://www.w3.org/2000/svg">
<path d="M7.42167 7.4776V58.3296C7.42167 60.1082 7.68441 61.4826 8.1897 62.4932C8.1897 62.5134 8.20992 62.5134 8.20992 62.5336C8.79605 63.6048 8.06843 64.9185 6.83553 64.9185H1.58056C0.347657 64.9185 -0.379952 63.6048 0.206179 62.5336C0.206179 62.5134 0.226392 62.5134 0.226392 62.4932C0.75189 61.4826 1.01464 60.1082 1.01464 58.3296V7.4776C1.01464 5.71921 0.75189 4.32462 0.226392 3.31405C0.226392 3.31405 0.206179 3.29383 0.206179 3.27362C-0.379952 2.20242 0.347657 0.888672 1.58056 0.888672H6.83553C8.06843 0.888672 8.79605 2.20242 8.20992 3.27362C8.20992 3.29383 8.1897 3.29383 8.1897 3.31405C7.68441 4.32462 7.42167 5.71921 7.42167 7.4776Z" fill="#EA6479"/>
</svg>
