<svg width="24" height="25" viewBox="0 0 24 25" fill="none" xmlns="http://www.w3.org/2000/svg">
<g id="icon / outlined / brand and logo / twitter">
<path id="Vector" d="M23 3.80009C22.0424 4.47557 20.9821 4.9922 19.86 5.33009C19.2577 4.63761 18.4573 4.14679 17.567 3.92402C16.6767 3.70126 15.7395 3.75729 14.8821 4.08455C14.0247 4.41181 13.2884 4.9945 12.773 5.75381C12.2575 6.51313 11.9877 7.41243 12 8.33009V9.33009C10.2426 9.37566 8.50127 8.98591 6.93101 8.19554C5.36074 7.40517 4.01032 6.23873 3 4.80009C3 4.80009 -1 13.8001 8 17.8001C5.94053 19.1981 3.48716 19.899 1 19.8001C10 24.8001 21 19.8001 21 8.30009C20.9991 8.02155 20.9723 7.74369 20.92 7.47009C21.9406 6.46359 22.6608 5.19281 23 3.80009Z" fill="white"/>
</g>
</svg>
