<svg width="25" height="24" viewBox="0 0 25 24" fill="none" xmlns="http://www.w3.org/2000/svg">
<path id="Star 5" d="M12.129 0.732149C12.3666 0.119077 13.234 0.119076 13.4716 0.732148L16.171 7.69682C16.2731 7.9604 16.5201 8.13981 16.8023 8.15551L24.2603 8.57054C24.9167 8.60707 25.1848 9.43207 24.6752 9.84751L18.8855 14.5669C18.6664 14.7455 18.5721 15.0358 18.6444 15.3091L20.5543 22.5303C20.7224 23.1659 20.0206 23.6758 19.468 23.3195L13.1905 19.2716C12.9529 19.1184 12.6477 19.1184 12.4101 19.2716L6.13256 23.3195C5.57997 23.6758 4.87818 23.1659 5.0463 22.5303L6.95622 15.3091C7.0285 15.0358 6.93418 14.7455 6.71507 14.5669L0.925417 9.84751C0.415778 9.43208 0.683836 8.60707 1.34033 8.57054L8.79827 8.15551C9.08051 8.13981 9.32745 7.9604 9.42961 7.69682L12.129 0.732149Z" fill="#FFFAEB"/>
</svg>
